<?xml version="1.0" standalone="no"?><!DOCTYPE svg PUBLIC "-//W3C//DTD SVG 1.1//EN" "http://www.w3.org/Graphics/SVG/1.1/DTD/svg11.dtd"><svg t="1776068446060" class="icon" viewBox="0 0 1024 1024" version="1.1" xmlns="http://www.w3.org/2000/svg" p-id="6365" xmlns:xlink="http://www.w3.org/1999/xlink" width="256" height="256"><path d="M704 96a192 192 0 0 1 192 192v448a192 192 0 0 1-192 192H320a192 192 0 0 1-192-192V288a192 192 0 0 1 192-192h384z m-30.08 424.928l-7.776 2.176a160.064 160.064 0 0 1-308.288 0A571.424 571.424 0 0 1 192 447.008V736a128 128 0 0 0 128 128h384a128 128 0 0 0 128-128l0.032-289.024a572.8 572.8 0 0 1-158.08 73.92zM512 384a96 96 0 1 0 0 192 96 96 0 0 0 0-192z m192-224H320a128 128 0 0 0-128 128v79.68a509.856 509.856 0 0 0 161.92 87.456 160 160 0 0 1 316.16-0.064A508.352 508.352 0 0 0 832 367.68L832 288a128 128 0 0 0-128-128z" fill="#6b7380" p-id="6366"></path></svg>