<?xml version="1.0" standalone="no"?><!DOCTYPE svg PUBLIC "-//W3C//DTD SVG 1.1//EN" "http://www.w3.org/Graphics/SVG/1.1/DTD/svg11.dtd"><svg t="1776310868515" class="icon" viewBox="0 0 1024 1024" version="1.1" xmlns="http://www.w3.org/2000/svg" p-id="4808" xmlns:xlink="http://www.w3.org/1999/xlink" width="256" height="256"><path d="M242 512c0 24.8 20.2 45 45 45h450c24.8 0 45-20.2 45-45s-20.2-45-45-45H287c-24.8 0-45 20.2-45 45zM842 62H632c-24.9 0-45 20.1-45 45s20.1 45 45 45h180c33.1 0 60 26.9 60 60v180c0 24.9 20.1 45 45 45s45-20.1 45-45V182c0-66.3-53.7-120-120-120zM107 437c24.9 0 45-20.1 45-45V212c0-33.1 26.9-60 60-60h180c24.9 0 45-20.1 45-45s-20.1-45-45-45H182c-66.3 0-120 53.7-120 120v210c0 24.9 20.1 45 45 45zM392 872H212c-33.1 0-60-26.9-60-60V632c0-24.9-20.1-45-45-45s-45 20.1-45 45v210c0 66.3 53.7 120 120 120h210c24.9 0 45-20.1 45-45s-20.1-45-45-45zM917 587c-24.9 0-45 20.1-45 45v180c0 33.1-26.9 60-60 60H632c-24.9 0-45 20.1-45 45s20.1 45 45 45h210c66.3 0 120-53.7 120-120V632c0-24.9-20.1-45-45-45z" fill="#5196df" p-id="4809"></path></svg>